<svg xmlns:xlink="http://www.w3.org/1999/xlink" xmlns="http://www.w3.org/2000/svg" version="1.1" width="570" height="500"><defs><clipPath id="highcharts-8"><rect rx="0" ry="0" fill="none" x="0" y="0" width="496" height="362" stroke-width="0.000001"></rect></clipPath></defs><rect rx="5" ry="5" fill="#FFFFFF" x="0" y="0" width="570" height="500" stroke-width="0.000001" stroke="#4572A7"></rect><g class="highcharts-grid" ></g><g class="highcharts-grid" ><path d="M 64 341.5 L 560 341.5" fill="none" stroke="#C0C0C0" stroke-width="1" ></path><path d="M 64 281.5 L 560 281.5" fill="none" stroke="#C0C0C0" stroke-width="1" ></path><path d="M 64 221.5 L 560 221.5" fill="none" stroke="#C0C0C0" stroke-width="1" ></path><path d="M 64 160.5 L 560 160.5" fill="none" stroke="#C0C0C0" stroke-width="1" ></path><path d="M 64 100.5 L 560 100.5" fill="none" stroke="#C0C0C0" stroke-width="1" ></path><path d="M 64 40.5 L 560 40.5" fill="none" stroke="#C0C0C0" stroke-width="1" ></path><path d="M 64 401.5 L 560 401.5" fill="none" stroke="#C0C0C0" stroke-width="1" ></path></g><g class="highcharts-series-group" ><g class="highcharts-series" visibility="visible" transform="translate(64,40)" clip-path="url(#highcharts-8)"><path d="M 65.2 328.5 C 65.2 328.5 90.82000000000001 328.5 107.9 328.5 C 112.94000000000001 328.5 115.46 264.7 120.5 264.7 C 130.14000000000001 264.7 134.95999999999998 264.7 144.6 264.7 C 160.44 264.7 168.35999999999999 240.7 184.2 240.7 C 208.92 240.7 221.28000000000003 240.7 246 240.7 C 285.2 240.7 344 182.3 344 182.3" fill="none" stroke="rgb(0, 0, 0)" stroke-width="5"  stroke-opacity="0.05" transform="translate(1,1)"></path><path d="M 65.2 328.5 C 65.2 328.5 90.82000000000001 328.5 107.9 328.5 C 112.94000000000001 328.5 115.46 264.7 120.5 264.7 C 130.14000000000001 264.7 134.95999999999998 264.7 144.6 264.7 C 160.44 264.7 168.35999999999999 240.7 184.2 240.7 C 208.92 240.7 221.28000000000003 240.7 246 240.7 C 285.2 240.7 344 182.3 344 182.3" fill="none" stroke="rgb(0, 0, 0)" stroke-width="3"  stroke-opacity="0.1" transform="translate(1,1)"></path><path d="M 65.2 328.5 C 65.2 328.5 90.82000000000001 328.5 107.9 328.5 C 112.94000000000001 328.5 115.46 264.7 120.5 264.7 C 130.14000000000001 264.7 134.95999999999998 264.7 144.6 264.7 C 160.44 264.7 168.35999999999999 240.7 184.2 240.7 C 208.92 240.7 221.28000000000003 240.7 246 240.7 C 285.2 240.7 344 182.3 344 182.3" fill="none" stroke="rgb(0, 0, 0)" stroke-width="1"  stroke-opacity="0.15000000000000002" transform="translate(1,1)"></path><path d="M 65.2 328.5 C 65.2 328.5 90.82000000000001 328.5 107.9 328.5 C 112.94000000000001 328.5 115.46 264.7 120.5 264.7 C 130.14000000000001 264.7 134.95999999999998 264.7 144.6 264.7 C 160.44 264.7 168.35999999999999 240.7 184.2 240.7 C 208.92 240.7 221.28000000000003 240.7 246 240.7 C 285.2 240.7 344 182.3 344 182.3" fill="none" stroke="#4572A7" stroke-width="2"></path><path d="M 344 178.3 C 349.328 178.3 349.328 186.3 344 186.3 C 338.672 186.3 338.672 178.3 344 178.3 Z" fill="#4572A7" stroke="#FFFFFF" stroke-width="0.000001"></path><path d="M 246 236.7 C 251.328 236.7 251.328 244.7 246 244.7 C 240.672 244.7 240.672 236.7 246 236.7 Z" fill="#4572A7" stroke="#FFFFFF" stroke-width="0.000001"></path><path d="M 184.2 236.7 C 189.528 236.7 189.528 244.7 184.2 244.7 C 178.87199999999999 244.7 178.87199999999999 236.7 184.2 236.7 Z" fill="#4572A7" stroke="#FFFFFF" stroke-width="0.000001"></path><path d="M 144.6 260.7 C 149.928 260.7 149.928 268.7 144.6 268.7 C 139.272 268.7 139.272 260.7 144.6 260.7 Z" fill="#4572A7" stroke="#FFFFFF" stroke-width="0.000001"></path><path d="M 120.5 260.7 C 125.828 260.7 125.828 268.7 120.5 268.7 C 115.172 268.7 115.172 260.7 120.5 260.7 Z" fill="#4572A7" stroke="#FFFFFF" stroke-width="0.000001"></path><path d="M 107.9 324.5 C 113.22800000000001 324.5 113.22800000000001 332.5 107.9 332.5 C 102.572 332.5 102.572 324.5 107.9 324.5 Z" fill="#4572A7" stroke="#FFFFFF" stroke-width="0.000001"></path><path d="M 65.2 324.5 C 70.528 324.5 70.528 332.5 65.2 332.5 C 59.872 332.5 59.872 324.5 65.2 324.5 Z" fill="#4572A7" stroke="#FFFFFF" stroke-width="0.000001"></path></g><g class="highcharts-series" visibility="visible" transform="translate(64,40)" clip-path="url(#highcharts-8)"><path d="M 187.9 266.5 C 187.9 266.5 227.56 266.5 254 261.7 C 295.04 256.9 356.6 190.7 356.6 190.7" fill="none" stroke="rgb(0, 0, 0)" stroke-width="5"  stroke-opacity="0.05" transform="translate(1,1)"></path><path d="M 187.9 266.5 C 187.9 266.5 227.56 266.5 254 261.7 C 295.04 256.9 356.6 190.7 356.6 190.7" fill="none" stroke="rgb(0, 0, 0)" stroke-width="3"  stroke-opacity="0.1" transform="translate(1,1)"></path><path d="M 187.9 266.5 C 187.9 266.5 227.56 266.5 254 261.7 C 295.04 256.9 356.6 190.7 356.6 190.7" fill="none" stroke="rgb(0, 0, 0)" stroke-width="1"  stroke-opacity="0.15000000000000002" transform="translate(1,1)"></path><path d="M 187.9 266.5 C 187.9 266.5 227.56 266.5 254 261.7 C 295.04 256.9 356.6 190.7 356.6 190.7" fill="none" stroke="#AA4643" stroke-width="2"></path><path d="M 356.6 186.7 L 360.6 190.7 356.6 194.7 352.6 190.7 Z" fill="#AA4643" stroke="#FFFFFF" stroke-width="0.000001"></path><path d="M 254 257.7 L 258 261.7 254 265.7 250 261.7 Z" fill="#AA4643" stroke="#FFFFFF" stroke-width="0.000001"></path><path d="M 187.9 262.5 L 191.9 266.5 187.9 270.5 183.9 266.5 Z" fill="#AA4643" stroke="#FFFFFF" stroke-width="0.000001"></path></g><g class="highcharts-series" visibility="visible" transform="translate(64,40)" clip-path="url(#highcharts-8)"><path d="M 233.6 192.5 C 233.6 192.5 285.56 192.5 320.2 187.7 C 387.8 182.89999999999998 489.2 69.2 489.2 69.2" fill="none" stroke="rgb(0, 0, 0)" stroke-width="5"  stroke-opacity="0.05" transform="translate(1,1)"></path><path d="M 233.6 192.5 C 233.6 192.5 285.56 192.5 320.2 187.7 C 387.8 182.89999999999998 489.2 69.2 489.2 69.2" fill="none" stroke="rgb(0, 0, 0)" stroke-width="3"  stroke-opacity="0.1" transform="translate(1,1)"></path><path d="M 233.6 192.5 C 233.6 192.5 285.56 192.5 320.2 187.7 C 387.8 182.89999999999998 489.2 69.2 489.2 69.2" fill="none" stroke="rgb(0, 0, 0)" stroke-width="1"  stroke-opacity="0.15000000000000002" transform="translate(1,1)"></path><path d="M 233.6 192.5 C 233.6 192.5 285.56 192.5 320.2 187.7 C 387.8 182.89999999999998 489.2 69.2 489.2 69.2" fill="none" stroke="#89A54E" stroke-width="2"></path><path d="M 485.2 65.2 L 493.2 65.2 493.2 73.2 485.2 73.2 Z" fill="#89A54E" stroke="#FFFFFF" stroke-width="0.000001"></path><path d="M 316.2 183.7 L 324.2 183.7 324.2 191.7 316.2 191.7 Z" fill="#89A54E" stroke="#FFFFFF" stroke-width="0.000001"></path><path d="M 229.6 188.5 L 237.6 188.5 237.6 196.5 229.6 196.5 Z" fill="#89A54E" stroke="#FFFFFF" stroke-width="0.000001"></path></g><g class="highcharts-series" visibility="visible" transform="translate(64,40)" clip-path="url(#highcharts-8)"><path d="M 378.3 126.4 C 378.3 126.4 491.1 110.1 491.1 110.1" fill="none" stroke="rgb(0, 0, 0)" stroke-width="5"  stroke-opacity="0.05" transform="translate(1,1)"></path><path d="M 378.3 126.4 C 378.3 126.4 491.1 110.1 491.1 110.1" fill="none" stroke="rgb(0, 0, 0)" stroke-width="3"  stroke-opacity="0.1" transform="translate(1,1)"></path><path d="M 378.3 126.4 C 378.3 126.4 491.1 110.1 491.1 110.1" fill="none" stroke="rgb(0, 0, 0)" stroke-width="1"  stroke-opacity="0.15000000000000002" transform="translate(1,1)"></path><path d="M 378.3 126.4 C 378.3 126.4 491.1 110.1 491.1 110.1" fill="none" stroke="#80699B" stroke-width="2"></path><path d="M 491.1 106.1 L 495.1 114.1 487.1 114.1 Z" fill="#80699B" stroke="#FFFFFF" stroke-width="0.000001"></path><path d="M 378.3 122.4 L 382.3 130.4 374.3 130.4 Z" fill="#80699B" stroke="#FFFFFF" stroke-width="0.000001"></path></g><g class="highcharts-series" visibility="hidden" transform="translate(64,40)" clip-path="url(#highcharts-8)"><path d="M 0 0" fill="none" stroke="rgb(0, 0, 0)" stroke-width="5"  stroke-opacity="0.05" transform="translate(1,1)"></path><path d="M 0 0" fill="none" stroke="rgb(0, 0, 0)" stroke-width="3"  stroke-opacity="0.1" transform="translate(1,1)"></path><path d="M 0 0" fill="none" stroke="rgb(0, 0, 0)" stroke-width="1"  stroke-opacity="0.15000000000000002" transform="translate(1,1)"></path><path d="M 0 0" fill="none" stroke="#3D96AE" stroke-width="2"></path><path d="M 415.4 74.8 L 423.4 74.8 419.4 82.8 Z" fill="#3D96AE" stroke="#FFFFFF" stroke-width="0.000001"></path></g><g class="highcharts-series" visibility="visible" transform="translate(64,40)" clip-path="url(#highcharts-8)"><path d="M 324.2 175.7 C 324.2 175.7 355.34000000000003 160.48318493150683 376.1 154.6 C 402.06000000000006 147.24318493150685 415.03999999999996 151.5976893453145 441 142.6 C 446.2 140.7976893453145 448.8 130.34549878345499 454 127.6 C 465.23999999999995 121.66549878345498 482.1 120.9 482.1 120.9" fill="none" stroke="rgb(0, 0, 0)" stroke-width="5"  stroke-opacity="0.05" transform="translate(1,1)"></path><path d="M 324.2 175.7 C 324.2 175.7 355.34000000000003 160.48318493150683 376.1 154.6 C 402.06000000000006 147.24318493150685 415.03999999999996 151.5976893453145 441 142.6 C 446.2 140.7976893453145 448.8 130.34549878345499 454 127.6 C 465.23999999999995 121.66549878345498 482.1 120.9 482.1 120.9" fill="none" stroke="rgb(0, 0, 0)" stroke-width="3"  stroke-opacity="0.1" transform="translate(1,1)"></path><path d="M 324.2 175.7 C 324.2 175.7 355.34000000000003 160.48318493150683 376.1 154.6 C 402.06000000000006 147.24318493150685 415.03999999999996 151.5976893453145 441 142.6 C 446.2 140.7976893453145 448.8 130.34549878345499 454 127.6 C 465.23999999999995 121.66549878345498 482.1 120.9 482.1 120.9" fill="none" stroke="rgb(0, 0, 0)" stroke-width="1"  stroke-opacity="0.15000000000000002" transform="translate(1,1)"></path><path d="M 324.2 175.7 C 324.2 175.7 355.34000000000003 160.48318493150683 376.1 154.6 C 402.06000000000006 147.24318493150685 415.03999999999996 151.5976893453145 441 142.6 C 446.2 140.7976893453145 448.8 130.34549878345499 454 127.6 C 465.23999999999995 121.66549878345498 482.1 120.9 482.1 120.9" fill="none" stroke="#DB843D" stroke-width="2"></path><path d="M 482.1 116.9 C 487.428 116.9 487.428 124.9 482.1 124.9 C 476.77200000000005 124.9 476.77200000000005 116.9 482.1 116.9 Z" fill="#DB843D" stroke="#FFFFFF" stroke-width="0.000001"></path><path d="M 454 123.6 C 459.328 123.6 459.328 131.6 454 131.6 C 448.672 131.6 448.672 123.6 454 123.6 Z" fill="#DB843D" stroke="#FFFFFF" stroke-width="0.000001"></path><path d="M 441 138.6 C 446.328 138.6 446.328 146.6 441 146.6 C 435.672 146.6 435.672 138.6 441 138.6 Z" fill="#DB843D" stroke="#FFFFFF" stroke-width="0.000001"></path><path d="M 376.1 150.6 C 381.428 150.6 381.428 158.6 376.1 158.6 C 370.77200000000005 158.6 370.77200000000005 150.6 376.1 150.6 Z" fill="#DB843D" stroke="#FFFFFF" stroke-width="0.000001"></path><path d="M 324.2 171.7 C 329.52799999999996 171.7 329.52799999999996 179.7 324.2 179.7 C 318.872 179.7 318.872 171.7 324.2 171.7 Z" fill="#DB843D" stroke="#FFFFFF" stroke-width="0.000001"></path></g><g class="highcharts-series" visibility="visible" transform="translate(64,40)" clip-path="url(#highcharts-8)"><path d="M 15.8 335.7 C 15.8 335.7 69.92 296.7795625350533 106 276.2 C 141.24 256.0995625350533 158.85999999999999 234 194.1 234 C 203.85999999999999 234 208.74 234 218.5 234 C 227.78000000000003 234 232.42 219.6 241.7 219.6 C 254.93999999999997 219.6 261.56000000000006 219.6 274.8 219.6 C 301.6 219.6 315 154 341.8 154 C 359.96000000000004 154 369.03999999999996 154 387.2 154 C 411.43999999999994 154 447.8 128.8 447.8 128.8" fill="none" stroke="rgb(0, 0, 0)" stroke-width="5"  stroke-opacity="0.05" transform="translate(1,1)"></path><path d="M 15.8 335.7 C 15.8 335.7 69.92 296.7795625350533 106 276.2 C 141.24 256.0995625350533 158.85999999999999 234 194.1 234 C 203.85999999999999 234 208.74 234 218.5 234 C 227.78000000000003 234 232.42 219.6 241.7 219.6 C 254.93999999999997 219.6 261.56000000000006 219.6 274.8 219.6 C 301.6 219.6 315 154 341.8 154 C 359.96000000000004 154 369.03999999999996 154 387.2 154 C 411.43999999999994 154 447.8 128.8 447.8 128.8" fill="none" stroke="rgb(0, 0, 0)" stroke-width="3"  stroke-opacity="0.1" transform="translate(1,1)"></path><path d="M 15.8 335.7 C 15.8 335.7 69.92 296.7795625350533 106 276.2 C 141.24 256.0995625350533 158.85999999999999 234 194.1 234 C 203.85999999999999 234 208.74 234 218.5 234 C 227.78000000000003 234 232.42 219.6 241.7 219.6 C 254.93999999999997 219.6 261.56000000000006 219.6 274.8 219.6 C 301.6 219.6 315 154 341.8 154 C 359.96000000000004 154 369.03999999999996 154 387.2 154 C 411.43999999999994 154 447.8 128.8 447.8 128.8" fill="none" stroke="rgb(0, 0, 0)" stroke-width="1"  stroke-opacity="0.15000000000000002" transform="translate(1,1)"></path><path d="M 15.8 335.7 C 15.8 335.7 69.92 296.7795625350533 106 276.2 C 141.24 256.0995625350533 158.85999999999999 234 194.1 234 C 203.85999999999999 234 208.74 234 218.5 234 C 227.78000000000003 234 232.42 219.6 241.7 219.6 C 254.93999999999997 219.6 261.56000000000006 219.6 274.8 219.6 C 301.6 219.6 315 154 341.8 154 C 359.96000000000004 154 369.03999999999996 154 387.2 154 C 411.43999999999994 154 447.8 128.8 447.8 128.8" fill="none" stroke="#92A8CD" stroke-width="2"></path><path d="M 447.8 124.80000000000001 L 451.8 128.8 447.8 132.8 443.8 128.8 Z" fill="#92A8CD" stroke="#FFFFFF" stroke-width="0.000001"></path><path d="M 387.2 150 L 391.2 154 387.2 158 383.2 154 Z" fill="#92A8CD" stroke="#FFFFFF" stroke-width="0.000001"></path><path d="M 341.8 150 L 345.8 154 341.8 158 337.8 154 Z" fill="#92A8CD" stroke="#FFFFFF" stroke-width="0.000001"></path><path d="M 274.8 215.6 L 278.8 219.6 274.8 223.6 270.8 219.6 Z" fill="#92A8CD" stroke="#FFFFFF" stroke-width="0.000001"></path><path d="M 241.7 215.6 L 245.7 219.6 241.7 223.6 237.7 219.6 Z" fill="#92A8CD" stroke="#FFFFFF" stroke-width="0.000001"></path><path d="M 218.5 230 L 222.5 234 218.5 238 214.5 234 Z" fill="#92A8CD" stroke="#FFFFFF" stroke-width="0.000001"></path><path d="M 194.1 230 L 198.1 234 194.1 238 190.1 234 Z" fill="#92A8CD" stroke="#FFFFFF" stroke-width="0.000001"></path><path d="M 106 272.2 L 110 276.2 106 280.2 102 276.2 Z" fill="#92A8CD" stroke="#FFFFFF" stroke-width="0.000001"></path><path d="M 15.8 331.7 L 19.8 335.7 15.8 339.7 11.8 335.7 Z" fill="#92A8CD" stroke="#FFFFFF" stroke-width="0.000001"></path></g><g class="highcharts-series" visibility="hidden" transform="translate(64,40)" clip-path="url(#highcharts-8)"><path d="M 0 0" fill="none" stroke="rgb(0, 0, 0)" stroke-width="5"  stroke-opacity="0.05" transform="translate(1,1)"></path><path d="M 0 0" fill="none" stroke="rgb(0, 0, 0)" stroke-width="3"  stroke-opacity="0.1" transform="translate(1,1)"></path><path d="M 0 0" fill="none" stroke="rgb(0, 0, 0)" stroke-width="1"  stroke-opacity="0.15000000000000002" transform="translate(1,1)"></path><path d="M 0 0" fill="none" stroke="#A47D7C" stroke-width="2"></path><path d="M 121.5 243.3 L 129.5 243.3 129.5 251.3 121.5 251.3 Z" fill="#A47D7C" stroke="#FFFFFF" stroke-width="0.000001"></path></g><g class="highcharts-series" visibility="hidden" transform="translate(64,40)" clip-path="url(#highcharts-8)"><path d="M 0 0" fill="none" stroke="rgb(0, 0, 0)" stroke-width="5"  stroke-opacity="0.05" transform="translate(1,1)"></path><path d="M 0 0" fill="none" stroke="rgb(0, 0, 0)" stroke-width="3"  stroke-opacity="0.1" transform="translate(1,1)"></path><path d="M 0 0" fill="none" stroke="rgb(0, 0, 0)" stroke-width="1"  stroke-opacity="0.15000000000000002" transform="translate(1,1)"></path><path d="M 0 0" fill="none" stroke="#B5CA92" stroke-width="2"></path><path d="M 491.1 213.2 L 495.1 221.2 487.1 221.2 Z" fill="#B5CA92" stroke="#FFFFFF" stroke-width="0.000001"></path></g><g class="highcharts-series" visibility="visible" transform="translate(64,40)" clip-path="url(#highcharts-8)"><path d="M 134.4 287 C 134.4 287 239.57999999999998 225.2375181071946 309.7 184.1 C 322.41999999999996 176.6375181071946 328.78000000000003 173.78160427807487 341.5 165.5 C 358.7 154.30160427807485 367.3 142.86097777777778 384.5 135.4 C 412.3 123.34097777777778 454 116.7 454 116.7" fill="none" stroke="rgb(0, 0, 0)" stroke-width="5"  stroke-opacity="0.05" transform="translate(1,1)"></path><path d="M 134.4 287 C 134.4 287 239.57999999999998 225.2375181071946 309.7 184.1 C 322.41999999999996 176.6375181071946 328.78000000000003 173.78160427807487 341.5 165.5 C 358.7 154.30160427807485 367.3 142.86097777777778 384.5 135.4 C 412.3 123.34097777777778 454 116.7 454 116.7" fill="none" stroke="rgb(0, 0, 0)" stroke-width="3"  stroke-opacity="0.1" transform="translate(1,1)"></path><path d="M 134.4 287 C 134.4 287 239.57999999999998 225.2375181071946 309.7 184.1 C 322.41999999999996 176.6375181071946 328.78000000000003 173.78160427807487 341.5 165.5 C 358.7 154.30160427807485 367.3 142.86097777777778 384.5 135.4 C 412.3 123.34097777777778 454 116.7 454 116.7" fill="none" stroke="rgb(0, 0, 0)" stroke-width="1"  stroke-opacity="0.15000000000000002" transform="translate(1,1)"></path><path d="M 134.4 287 C 134.4 287 239.57999999999998 225.2375181071946 309.7 184.1 C 322.41999999999996 176.6375181071946 328.78000000000003 173.78160427807487 341.5 165.5 C 358.7 154.30160427807485 367.3 142.86097777777778 384.5 135.4 C 412.3 123.34097777777778 454 116.7 454 116.7" fill="none" stroke="#4572A7" stroke-width="2"></path><path d="M 450 112.7 L 458 112.7 454 120.7 Z" fill="#4572A7" stroke="#FFFFFF" stroke-width="0.000001"></path><path d="M 380.5 131.4 L 388.5 131.4 384.5 139.4 Z" fill="#4572A7" stroke="#FFFFFF" stroke-width="0.000001"></path><path d="M 337.5 161.5 L 345.5 161.5 341.5 169.5 Z" fill="#4572A7" stroke="#FFFFFF" stroke-width="0.000001"></path><path d="M 305.7 180.1 L 313.7 180.1 309.7 188.1 Z" fill="#4572A7" stroke="#FFFFFF" stroke-width="0.000001"></path><path d="M 130.4 283 L 138.4 283 134.4 291 Z" fill="#4572A7" stroke="#FFFFFF" stroke-width="0.000001"></path></g><g class="highcharts-series" visibility="hidden" transform="translate(64,40)" clip-path="url(#highcharts-8)"><path d="M 0 349 C 0 349 176.7 323.04168962350775 294.5 289.4 C 307.38 285.72168962350776 313.82 265.30298229263747 326.7 255.7 C 356.73999999999995 233.30298229263747 371.76000000000005 223.4234692246203 401.8 209.4 C 421.8 200.06346922462032 451.8 197.3 451.8 197.3" fill="none" stroke="rgb(0, 0, 0)" stroke-width="5"  stroke-opacity="0.05" transform="translate(1,1)"></path><path d="M 0 349 C 0 349 176.7 323.04168962350775 294.5 289.4 C 307.38 285.72168962350776 313.82 265.30298229263747 326.7 255.7 C 356.73999999999995 233.30298229263747 371.76000000000005 223.4234692246203 401.8 209.4 C 421.8 200.06346922462032 451.8 197.3 451.8 197.3" fill="none" stroke="rgb(0, 0, 0)" stroke-width="3"  stroke-opacity="0.1" transform="translate(1,1)"></path><path d="M 0 349 C 0 349 176.7 323.04168962350775 294.5 289.4 C 307.38 285.72168962350776 313.82 265.30298229263747 326.7 255.7 C 356.73999999999995 233.30298229263747 371.76000000000005 223.4234692246203 401.8 209.4 C 421.8 200.06346922462032 451.8 197.3 451.8 197.3" fill="none" stroke="rgb(0, 0, 0)" stroke-width="1"  stroke-opacity="0.15000000000000002" transform="translate(1,1)"></path><path d="M 0 349 C 0 349 176.7 323.04168962350775 294.5 289.4 C 307.38 285.72168962350776 313.82 265.30298229263747 326.7 255.7 C 356.73999999999995 233.30298229263747 371.76000000000005 223.4234692246203 401.8 209.4 C 421.8 200.06346922462032 451.8 197.3 451.8 197.3" fill="none" stroke="#AA4643" stroke-width="2"></path><path d="M 451.8 193.3 C 457.128 193.3 457.128 201.3 451.8 201.3 C 446.47200000000004 201.3 446.47200000000004 193.3 451.8 193.3 Z" fill="#AA4643" stroke="#FFFFFF" stroke-width="0.000001"></path><path d="M 401.8 205.4 C 407.128 205.4 407.128 213.4 401.8 213.4 C 396.47200000000004 213.4 396.47200000000004 205.4 401.8 205.4 Z" fill="#AA4643" stroke="#FFFFFF" stroke-width="0.000001"></path><path d="M 326.7 251.7 C 332.02799999999996 251.7 332.02799999999996 259.7 326.7 259.7 C 321.372 259.7 321.372 251.7 326.7 251.7 Z" fill="#AA4643" stroke="#FFFFFF" stroke-width="0.000001"></path><path d="M 294.5 285.4 C 299.828 285.4 299.828 293.4 294.5 293.4 C 289.172 293.4 289.172 285.4 294.5 285.4 Z" fill="#AA4643" stroke="#FFFFFF" stroke-width="0.000001"></path><path d="M 0 345 C 5.328 345 5.328 353 0 353 C -5.328 353 -5.328 345 0 345 Z" fill="#AA4643" stroke="#FFFFFF" stroke-width="0.000001"></path></g><g class="highcharts-series" visibility="hidden" transform="translate(64,40)" clip-path="url(#highcharts-8)"><path d="M 491.1 69.2 C 491.1 69.2 491.1 104.7 491.1 104.7" fill="none" stroke="rgb(0, 0, 0)" stroke-width="5"  stroke-opacity="0.05" transform="translate(1,1)"></path><path d="M 491.1 69.2 C 491.1 69.2 491.1 104.7 491.1 104.7" fill="none" stroke="rgb(0, 0, 0)" stroke-width="3"  stroke-opacity="0.1" transform="translate(1,1)"></path><path d="M 491.1 69.2 C 491.1 69.2 491.1 104.7 491.1 104.7" fill="none" stroke="rgb(0, 0, 0)" stroke-width="1"  stroke-opacity="0.15000000000000002" transform="translate(1,1)"></path><path d="M 491.1 69.2 C 491.1 69.2 491.1 104.7 491.1 104.7" fill="none" stroke="#89A54E" stroke-width="2"></path><path d="M 491.1 100.7 L 495.1 104.7 491.1 108.7 487.1 104.7 Z" fill="#89A54E" stroke="#FFFFFF" stroke-width="0.000001"></path><path d="M 491.1 65.2 L 495.1 69.2 491.1 73.2 487.1 69.2 Z" fill="#89A54E" stroke="#FFFFFF" stroke-width="0.000001"></path></g><g class="highcharts-series" visibility="visible" transform="translate(64,40)" clip-path="url(#highcharts-8)"><path d="M 158.5 279.2 C 158.5 279.2 274.4 261.1 274.4 261.1" fill="none" stroke="rgb(0, 0, 0)" stroke-width="5"  stroke-opacity="0.05" transform="translate(1,1)"></path><path d="M 158.5 279.2 C 158.5 279.2 274.4 261.1 274.4 261.1" fill="none" stroke="rgb(0, 0, 0)" stroke-width="3"  stroke-opacity="0.1" transform="translate(1,1)"></path><path d="M 158.5 279.2 C 158.5 279.2 274.4 261.1 274.4 261.1" fill="none" stroke="rgb(0, 0, 0)" stroke-width="1"  stroke-opacity="0.15000000000000002" transform="translate(1,1)"></path><path d="M 158.5 279.2 C 158.5 279.2 274.4 261.1 274.4 261.1" fill="none" stroke="#80699B" stroke-width="2"></path><path d="M 270.4 257.1 L 278.4 257.1 278.4 265.1 270.4 265.1 Z" fill="#80699B" stroke="#FFFFFF" stroke-width="0.000001"></path><path d="M 154.5 275.2 L 162.5 275.2 162.5 283.2 154.5 283.2 Z" fill="#80699B" stroke="#FFFFFF" stroke-width="0.000001"></path></g><g class="highcharts-series" visibility="visible" transform="translate(64,40)" clip-path="url(#highcharts-8)"><path d="M 114.4 356.2 C 114.4 356.2 184.84 356.2 231.8 346.6 C 273.96000000000004 337.00000000000006 295.03999999999996 310.8752014010508 337.2 278 C 386.4 239.63520140105078 460.2 168.5 460.2 168.5" fill="none" stroke="rgb(0, 0, 0)" stroke-width="5"  stroke-opacity="0.05" transform="translate(1,1)"></path><path d="M 114.4 356.2 C 114.4 356.2 184.84 356.2 231.8 346.6 C 273.96000000000004 337.00000000000006 295.03999999999996 310.8752014010508 337.2 278 C 386.4 239.63520140105078 460.2 168.5 460.2 168.5" fill="none" stroke="rgb(0, 0, 0)" stroke-width="3"  stroke-opacity="0.1" transform="translate(1,1)"></path><path d="M 114.4 356.2 C 114.4 356.2 184.84 356.2 231.8 346.6 C 273.96000000000004 337.00000000000006 295.03999999999996 310.8752014010508 337.2 278 C 386.4 239.63520140105078 460.2 168.5 460.2 168.5" fill="none" stroke="rgb(0, 0, 0)" stroke-width="1"  stroke-opacity="0.15000000000000002" transform="translate(1,1)"></path><path d="M 114.4 356.2 C 114.4 356.2 184.84 356.2 231.8 346.6 C 273.96000000000004 337.00000000000006 295.03999999999996 310.8752014010508 337.2 278 C 386.4 239.63520140105078 460.2 168.5 460.2 168.5" fill="none" stroke="#3D96AE" stroke-width="2"></path><path d="M 460.2 164.5 L 464.2 172.5 456.2 172.5 Z" fill="#3D96AE" stroke="#FFFFFF" stroke-width="0.000001"></path><path d="M 337.2 274 L 341.2 282 333.2 282 Z" fill="#3D96AE" stroke="#FFFFFF" stroke-width="0.000001"></path><path d="M 231.8 342.6 L 235.8 350.6 227.8 350.6 Z" fill="#3D96AE" stroke="#FFFFFF" stroke-width="0.000001"></path><path d="M 114.4 352.2 L 118.4 360.2 110.4 360.2 Z" fill="#3D96AE" stroke="#FFFFFF" stroke-width="0.000001"></path></g></g><text x="285" y="25" style="font-family:'lucida grande', 'lucida sans unicode', verdana, arial, helvetica, sans-serif;font-size:16px;color:#3e576f;fill:#3e576f;" text-anchor="middle" class="highcharts-title" ><tspan x="285">HTML5test.com score over the years</tspan></text><g class="highcharts-legend"  transform="translate(50,455)"><text x="30" y="18" style="font-family:'lucida grande', 'lucida sans unicode', verdana, arial, helvetica, sans-serif;font-size:12px;cursor:pointer;color:#3e576f;fill:#3e576f;" text-anchor="start" ><tspan x="30">Android</tspan></text><path d="M -21 0 L -5 0" fill="none" stroke-width="2"  stroke="#4572A7" transform="translate(30,14)"></path><text x="103" y="18" style="font-family:'lucida grande', 'lucida sans unicode', verdana, arial, helvetica, sans-serif;font-size:12px;cursor:pointer;color:#3e576f;fill:#3e576f;" text-anchor="start" ><tspan x="103">Bada</tspan></text><path d="M -21 0 L -5 0" fill="none" stroke-width="2"  stroke="#AA4643" transform="translate(103,14)"></path><text x="157" y="18" style="font-family:'lucida grande', 'lucida sans unicode', verdana, arial, helvetica, sans-serif;font-size:12px;cursor:pointer;color:#3e576f;fill:#3e576f;" text-anchor="start" ><tspan x="157">Blackberry</tspan></text><path d="M -21 0 L -5 0" fill="none" stroke-width="2"  stroke="#89A54E" transform="translate(157,14)"></path><text x="244" y="18" style="font-family:'lucida grande', 'lucida sans unicode', verdana, arial, helvetica, sans-serif;font-size:12px;cursor:pointer;color:#3e576f;fill:#3e576f;" text-anchor="start" ><tspan x="244">Chrome</tspan></text><path d="M -21 0 L -5 0" fill="none" stroke-width="2"  stroke="#80699B" transform="translate(244,14)"></path><text x="316" y="18" style="font-family:'lucida grande', 'lucida sans unicode', verdana, arial, helvetica, sans-serif;font-size:12px;cursor:pointer;color:#c0c0c0;fill:#c0c0c0;" text-anchor="start" ><tspan x="316">Dolphin</tspan></text><path d="M -21 0 L -5 0" fill="none" stroke-width="2"  stroke="#C0C0C0" transform="translate(316,14)"></path><text x="388" y="18" style="font-family:'lucida grande', 'lucida sans unicode', verdana, arial, helvetica, sans-serif;font-size:12px;cursor:pointer;color:#3e576f;fill:#3e576f;" text-anchor="start" ><tspan x="388">Firefox</tspan></text><path d="M -21 0 L -5 0" fill="none" stroke-width="2"  stroke="#DB843D" transform="translate(388,14)"></path><text x="455" y="18" style="font-family:'lucida grande', 'lucida sans unicode', verdana, arial, helvetica, sans-serif;font-size:12px;cursor:pointer;color:#3e576f;fill:#3e576f;" text-anchor="start" ><tspan x="455">iOS</tspan></text><path d="M -21 0 L -5 0" fill="none" stroke-width="2"  stroke="#92A8CD" transform="translate(455,14)"></path><text x="30" y="33" style="font-family:'lucida grande', 'lucida sans unicode', verdana, arial, helvetica, sans-serif;font-size:12px;cursor:pointer;color:#c0c0c0;fill:#c0c0c0;" text-anchor="start" ><tspan x="30">Maemo</tspan></text><path d="M -21 0 L -5 0" fill="none" stroke-width="2"  stroke="#C0C0C0" transform="translate(30,29)"></path><text x="99" y="33" style="font-family:'lucida grande', 'lucida sans unicode', verdana, arial, helvetica, sans-serif;font-size:12px;cursor:pointer;color:#c0c0c0;fill:#c0c0c0;" text-anchor="start" ><tspan x="99">Nokia</tspan></text><path d="M -21 0 L -5 0" fill="none" stroke-width="2"  stroke="#C0C0C0" transform="translate(99,29)"></path><text x="159" y="33" style="font-family:'lucida grande', 'lucida sans unicode', verdana, arial, helvetica, sans-serif;font-size:12px;cursor:pointer;color:#3e576f;fill:#3e576f;" text-anchor="start" ><tspan x="159">Opera</tspan></text><path d="M -21 0 L -5 0" fill="none" stroke-width="2"  stroke="#4572A7" transform="translate(159,29)"></path><text x="221" y="33" style="font-family:'lucida grande', 'lucida sans unicode', verdana, arial, helvetica, sans-serif;font-size:12px;cursor:pointer;color:#c0c0c0;fill:#c0c0c0;" text-anchor="start" ><tspan x="221">S60</tspan></text><path d="M -21 0 L -5 0" fill="none" stroke-width="2"  stroke="#C0C0C0" transform="translate(221,29)"></path><text x="269" y="33" style="font-family:'lucida grande', 'lucida sans unicode', verdana, arial, helvetica, sans-serif;font-size:12px;cursor:pointer;color:#c0c0c0;fill:#c0c0c0;" text-anchor="start" ><tspan x="269">Tizen</tspan></text><path d="M -21 0 L -5 0" fill="none" stroke-width="2"  stroke="#C0C0C0" transform="translate(269,29)"></path><text x="328" y="33" style="font-family:'lucida grande', 'lucida sans unicode', verdana, arial, helvetica, sans-serif;font-size:12px;cursor:pointer;color:#3e576f;fill:#3e576f;" text-anchor="start" ><tspan x="328">webOS</tspan></text><path d="M -21 0 L -5 0" fill="none" stroke-width="2"  stroke="#80699B" transform="translate(328,29)"></path><text x="394" y="33" style="font-family:'lucida grande', 'lucida sans unicode', verdana, arial, helvetica, sans-serif;font-size:12px;cursor:pointer;color:#3e576f;fill:#3e576f;" text-anchor="start" ><tspan x="394">Windows</tspan></text><path d="M -21 0 L -5 0" fill="none" stroke-width="2"  stroke="#3D96AE" transform="translate(394,29)"></path><path d="M 17 10 C 22.328 10 22.328 18 17 18 C 11.672 18 11.672 10 17 10 Z" fill="#4572A7"  stroke="#4572A7"></path><path d="M 90 10 L 94 14 90 18 86 14 Z" fill="#AA4643"  stroke="#AA4643"></path><path d="M 140 10 L 148 10 148 18 140 18 Z" fill="#89A54E"  stroke="#89A54E"></path><path d="M 231 10 L 235 18 227 18 Z" fill="#80699B"  stroke="#80699B"></path><path d="M 299 10 L 307 10 303 18 Z" fill="#C0C0C0"  stroke="#C0C0C0"></path><path d="M 375 10 C 380.328 10 380.328 18 375 18 C 369.672 18 369.672 10 375 10 Z" fill="#DB843D"  stroke="#DB843D"></path><path d="M 442 10 L 446 14 442 18 438 14 Z" fill="#92A8CD"  stroke="#92A8CD"></path><path d="M 13 25 L 21 25 21 33 13 33 Z" fill="#C0C0C0"  stroke="#C0C0C0"></path><path d="M 86 25 L 90 33 82 33 Z" fill="#C0C0C0"  stroke="#C0C0C0"></path><path d="M 142 25 L 150 25 146 33 Z" fill="#4572A7"  stroke="#4572A7"></path><path d="M 208 25 C 213.328 25 213.328 33 208 33 C 202.672 33 202.672 25 208 25 Z" fill="#C0C0C0"  stroke="#C0C0C0"></path><path d="M 256 25 L 260 29 256 33 252 29 Z" fill="#C0C0C0"  stroke="#C0C0C0"></path><path d="M 311 25 L 319 25 319 33 311 33 Z" fill="#80699B"  stroke="#80699B"></path><path d="M 381 25 L 385 33 377 33 Z" fill="#3D96AE"  stroke="#3D96AE"></path></g><g class="highcharts-axis" ><text x="205.2383403223897" y="415" style="font-family:'lucida grande', 'lucida sans unicode', verdana, arial, helvetica, sans-serif;font-size:11px;color:#666;line-height:14px;fill:#666;" text-anchor="middle" visibility="visible"><tspan x="205.2383403223897">Jan 2010</tspan></text><text x="92.43310133404782" y="415" style="font-family:'lucida grande', 'lucida sans unicode', verdana, arial, helvetica, sans-serif;font-size:11px;color:#666;line-height:14px;fill:#666;" text-anchor="middle" visibility="visible"><tspan x="92.43310133404782">Jan 2009</tspan></text><text x="318.04357931073156" y="415" style="font-family:'lucida grande', 'lucida sans unicode', verdana, arial, helvetica, sans-serif;font-size:11px;color:#666;line-height:14px;fill:#666;" text-anchor="middle" visibility="visible"><tspan x="318.04357931073156">Jan 2011</tspan></text><text x="430.84881829907346" y="415" style="font-family:'lucida grande', 'lucida sans unicode', verdana, arial, helvetica, sans-serif;font-size:11px;color:#666;line-height:14px;fill:#666;" text-anchor="middle" visibility="visible"><tspan x="430.84881829907346">Jan 2012</tspan></text><text x="536" y="415" style="font-family:'lucida grande', 'lucida sans unicode', verdana, arial, helvetica, sans-serif;font-size:11px;color:#666;line-height:14px;fill:#666;" text-anchor="middle" visibility="visible"><tspan x="536">Jan 2013</tspan></text><path d="M 205.5 401 L 205.5 406" fill="none" stroke="#C0D0E0" stroke-width="1"></path><path d="M 318.5 401 L 318.5 406" fill="none" stroke="#C0D0E0" stroke-width="1"></path><path d="M 431.5 401 L 431.5 406" fill="none" stroke="#C0D0E0" stroke-width="1"></path><path d="M 544.5 401 L 544.5 406" fill="none" stroke="#C0D0E0" stroke-width="1"></path><path d="M 92.5 401 L 92.5 406" fill="none" stroke="#C0D0E0" stroke-width="1"></path></g><g class="highcharts-axis" ><text x="56" y="406.6" style="font-family:'lucida grande', 'lucida sans unicode', verdana, arial, helvetica, sans-serif;font-size:11px;width:228px;color:#666;line-height:14px;fill:#666;" text-anchor="end" visibility="visible"><tspan x="56">0</tspan></text><text x="56" y="346.43333333333334" style="font-family:'lucida grande', 'lucida sans unicode', verdana, arial, helvetica, sans-serif;font-size:11px;width:228px;color:#666;line-height:14px;fill:#666;" text-anchor="end" visibility="visible"><tspan x="56">100</tspan></text><text x="56" y="286.26666666666665" style="font-family:'lucida grande', 'lucida sans unicode', verdana, arial, helvetica, sans-serif;font-size:11px;width:228px;color:#666;line-height:14px;fill:#666;" text-anchor="end" visibility="visible"><tspan x="56">200</tspan></text><text x="56" y="226.1" style="font-family:'lucida grande', 'lucida sans unicode', verdana, arial, helvetica, sans-serif;font-size:11px;width:228px;color:#666;line-height:14px;fill:#666;" text-anchor="end" visibility="visible"><tspan x="56">300</tspan></text><text x="56" y="165.9333333333333" style="font-family:'lucida grande', 'lucida sans unicode', verdana, arial, helvetica, sans-serif;font-size:11px;width:228px;color:#666;line-height:14px;fill:#666;" text-anchor="end" visibility="visible"><tspan x="56">400</tspan></text><text x="56" y="105.76666666666668" style="font-family:'lucida grande', 'lucida sans unicode', verdana, arial, helvetica, sans-serif;font-size:11px;width:228px;color:#666;line-height:14px;fill:#666;" text-anchor="end" visibility="visible"><tspan x="56">500</tspan></text><text x="56" y="45.6" style="font-family:'lucida grande', 'lucida sans unicode', verdana, arial, helvetica, sans-serif;font-size:11px;width:228px;color:#666;line-height:14px;fill:#666;" text-anchor="end" visibility="visible"><tspan x="56">600</tspan></text></g><text x="25" y="220.5" style="font-family:'lucida grande', 'lucida sans unicode', verdana, arial, helvetica, sans-serif;font-size:12px;color:#6d869f;font-weight:bold;fill:#6d869f;"  transform="rotate(270 25 220)" text-anchor="middle" visibility="visible"><tspan x="25">Score (points)</tspan></text><path d="M 64 401.5 L 560 401.5" fill="none" stroke="#C0D0E0" stroke-width="1"  visibility="visible"></path><g  style="padding:0;white-space:nowrap;" visibility="hidden"><rect rx="5" ry="5" fill="none" x="0" y="0" width="0" height="0" stroke-width="5" fill-opacity="0.85" anchorX="0" anchorY="0"  stroke="rgb(0, 0, 0)" stroke-opacity="0.05" transform="translate(1,1)"></rect><rect rx="5" ry="5" fill="none" x="0" y="0" width="0" height="0" stroke-width="3" fill-opacity="0.85" anchorX="0" anchorY="0"  stroke="rgb(0, 0, 0)" stroke-opacity="0.1" transform="translate(1,1)"></rect><rect rx="5" ry="5" fill="none" x="0" y="0" width="0" height="0" stroke-width="1" fill-opacity="0.85" anchorX="0" anchorY="0"  stroke="rgb(0, 0, 0)" stroke-opacity="0.15000000000000002" transform="translate(1,1)"></rect><rect rx="5" ry="5" fill="rgb(255,255,255)" x="0" y="0" width="0" height="0" stroke-width="2" fill-opacity="0.85" anchorX="0" anchorY="0"></rect><text x="0" y="13" style="font-family:'lucida grande', 'lucida sans unicode', verdana, arial, helvetica, sans-serif;font-size:12px;color:#333333;fill:#333333;" ></text></g><g class="highcharts-tracker" ><g  transform="translate(64,40)" clip-path="url(#highcharts-8)"><path d="M 55.2 328.5 L 65.2 328.5 C 65.2 328.5 90.82000000000001 328.5 107.9 328.5 C 112.94000000000001 328.5 115.46 264.7 120.5 264.7 C 130.14000000000001 264.7 134.95999999999998 264.7 144.6 264.7 C 160.44 264.7 168.35999999999999 240.7 184.2 240.7 C 208.92 240.7 221.28000000000003 240.7 246 240.7 C 285.2 240.7 344 182.3 344 182.3 L 354 182.3" fill="none"  stroke-opacity="0.000001" stroke="rgb(192,192,192)" stroke-linejoin="bevel" stroke-width="22" visibility="visible" style=""></path></g><g  transform="translate(64,40)" clip-path="url(#highcharts-8)"><path d="M 177.9 266.5 L 187.9 266.5 C 187.9 266.5 227.56 266.5 254 261.7 C 295.04 256.9 356.6 190.7 356.6 190.7 L 366.6 190.7" fill="none"  stroke-opacity="0.000001" stroke="rgb(192,192,192)" stroke-linejoin="bevel" stroke-width="22" visibility="visible" style=""></path></g><g  transform="translate(64,40)" clip-path="url(#highcharts-8)"><path d="M 223.6 192.5 L 233.6 192.5 C 233.6 192.5 285.56 192.5 320.2 187.7 C 387.8 182.89999999999998 489.2 69.2 489.2 69.2 L 499.2 69.2" fill="none"  stroke-opacity="0.000001" stroke="rgb(192,192,192)" stroke-linejoin="bevel" stroke-width="22" visibility="visible" style=""></path></g><g  transform="translate(64,40)" clip-path="url(#highcharts-8)"><path d="M 368.3 126.4 L 378.3 126.4 C 378.3 126.4 491.1 110.1 491.1 110.1 L 501.1 110.1" fill="none"  stroke-opacity="0.000001" stroke="rgb(192,192,192)" stroke-linejoin="bevel" stroke-width="22" visibility="visible" style=""></path></g><g  transform="translate(64,40)" clip-path="url(#highcharts-8)"><path d="M 409.4 78.8 L 429.4 78.8" fill="none"  stroke-opacity="0.000001" stroke="rgb(192,192,192)" stroke-linejoin="bevel" stroke-width="22" visibility="hidden" style=""></path></g><g  transform="translate(64,40)" clip-path="url(#highcharts-8)"><path d="M 314.2 175.7 L 324.2 175.7 C 324.2 175.7 355.34000000000003 160.48318493150683 376.1 154.6 C 402.06000000000006 147.24318493150685 415.03999999999996 151.5976893453145 441 142.6 C 446.2 140.7976893453145 448.8 130.34549878345499 454 127.6 C 465.23999999999995 121.66549878345498 482.1 120.9 482.1 120.9 L 492.1 120.9" fill="none"  stroke-opacity="0.000001" stroke="rgb(192,192,192)" stroke-linejoin="bevel" stroke-width="22" visibility="visible" style=""></path></g><g  transform="translate(64,40)" clip-path="url(#highcharts-8)"><path d="M 5.800000000000001 335.7 L 15.8 335.7 C 15.8 335.7 69.92 296.7795625350533 106 276.2 C 141.24 256.0995625350533 158.85999999999999 234 194.1 234 C 203.85999999999999 234 208.74 234 218.5 234 C 227.78000000000003 234 232.42 219.6 241.7 219.6 C 254.93999999999997 219.6 261.56000000000006 219.6 274.8 219.6 C 301.6 219.6 315 154 341.8 154 C 359.96000000000004 154 369.03999999999996 154 387.2 154 C 411.43999999999994 154 447.8 128.8 447.8 128.8 L 457.8 128.8" fill="none"  stroke-opacity="0.000001" stroke="rgb(192,192,192)" stroke-linejoin="bevel" stroke-width="22" visibility="visible" style=""></path></g><g  transform="translate(64,40)" clip-path="url(#highcharts-8)"><path d="M 115.5 247.3 L 135.5 247.3" fill="none"  stroke-opacity="0.000001" stroke="rgb(192,192,192)" stroke-linejoin="bevel" stroke-width="22" visibility="hidden" style=""></path></g><g  transform="translate(64,40)" clip-path="url(#highcharts-8)"><path d="M 481.1 217.2 L 501.1 217.2" fill="none"  stroke-opacity="0.000001" stroke="rgb(192,192,192)" stroke-linejoin="bevel" stroke-width="22" visibility="hidden" style=""></path></g><g  transform="translate(64,40)" clip-path="url(#highcharts-8)"><path d="M 124.4 287 L 134.4 287 C 134.4 287 239.57999999999998 225.2375181071946 309.7 184.1 C 322.41999999999996 176.6375181071946 328.78000000000003 173.78160427807487 341.5 165.5 C 358.7 154.30160427807485 367.3 142.86097777777778 384.5 135.4 C 412.3 123.34097777777778 454 116.7 454 116.7 L 464 116.7" fill="none"  stroke-opacity="0.000001" stroke="rgb(192,192,192)" stroke-linejoin="bevel" stroke-width="22" visibility="visible" style=""></path></g><g  transform="translate(64,40)" clip-path="url(#highcharts-8)"><path d="M -10 349 L 0 349 C 0 349 176.7 323.04168962350775 294.5 289.4 C 307.38 285.72168962350776 313.82 265.30298229263747 326.7 255.7 C 356.73999999999995 233.30298229263747 371.76000000000005 223.4234692246203 401.8 209.4 C 421.8 200.06346922462032 451.8 197.3 451.8 197.3 L 461.8 197.3" fill="none"  stroke-opacity="0.000001" stroke="rgb(192,192,192)" stroke-linejoin="bevel" stroke-width="22" visibility="hidden" style=""></path></g><g  transform="translate(64,40)" clip-path="url(#highcharts-8)"><path d="M 481.1 69.2 L 491.1 69.2 C 491.1 69.2 491.1 104.7 491.1 104.7 L 501.1 104.7" fill="none"  stroke-opacity="0.000001" stroke="rgb(192,192,192)" stroke-linejoin="bevel" stroke-width="22" visibility="hidden" style=""></path></g><g  transform="translate(64,40)" clip-path="url(#highcharts-8)"><path d="M 148.5 279.2 L 158.5 279.2 C 158.5 279.2 274.4 261.1 274.4 261.1 L 284.4 261.1" fill="none"  stroke-opacity="0.000001" stroke="rgb(192,192,192)" stroke-linejoin="bevel" stroke-width="22" visibility="visible" style=""></path></g><g  transform="translate(64,40)" clip-path="url(#highcharts-8)"><path d="M 104.4 356.2 L 114.4 356.2 C 114.4 356.2 184.84 356.2 231.8 346.6 C 273.96000000000004 337.00000000000006 295.03999999999996 310.8752014010508 337.2 278 C 386.4 239.63520140105078 460.2 168.5 460.2 168.5 L 470.2 168.5" fill="none"  stroke-opacity="0.000001" stroke="rgb(192,192,192)" stroke-linejoin="bevel" stroke-width="22" visibility="visible" style=""></path></g></g></svg>